<?xml version="1.0" encoding="utf-8"?>
<!-- Generator: Adobe Illustrator 27.5.0, SVG Export Plug-In . SVG Version: 6.00 Build 0)  -->
<svg version="1.1" xmlns="http://www.w3.org/2000/svg" xmlns:xlink="http://www.w3.org/1999/xlink" x="0px" y="0px"
	 viewBox="0 0 1870 1122" style="enable-background:new 0 0 1870 1122;" xml:space="preserve">
<g id="BG">
	<rect style="fill:#FFFFFF;" width="1870" height="1122"/>
</g>
<g id="Objects">
	<path style="fill:#DAAA49;" d="M1401.786,969.254c-70.729,0-128.272-57.543-128.272-128.274
		c0-70.729,57.542-128.272,128.272-128.272c70.731,0,128.274,57.543,128.274,128.272
		C1530.059,911.711,1472.517,969.254,1401.786,969.254z M1401.786,737.857c-56.862,0-103.123,46.261-103.123,103.123
		s46.261,103.125,103.123,103.125c56.863,0,103.125-46.262,103.125-103.125S1458.649,737.857,1401.786,737.857z"/>
	<path style="fill:#89BBE1;" d="M1583.005,470.387c-56.241,0-101.995-45.755-101.995-101.996
		c0-56.24,45.754-101.995,101.995-101.995c56.241,0,101.995,45.755,101.995,101.995C1685,424.632,1639.246,470.387,1583.005,470.387
		z M1583.005,291.545c-42.372,0-76.846,34.473-76.846,76.846c0,42.373,34.474,76.847,76.846,76.847
		c42.373,0,76.846-34.474,76.846-76.847C1659.851,326.018,1625.377,291.545,1583.005,291.545z"/>
	<path style="fill:#8BC3B6;" d="M302.929,543.29C237.902,543.29,185,490.388,185,425.361c0-65.026,52.902-117.929,117.929-117.929
		c65.026,0,117.928,52.902,117.928,117.929C420.857,490.388,367.954,543.29,302.929,543.29z M302.929,332.581
		c-51.159,0-92.78,41.621-92.78,92.78c0,51.159,41.621,92.78,92.78,92.78s92.779-41.621,92.779-92.78
		C395.708,374.202,354.087,332.581,302.929,332.581z"/>
	<path style="fill:#D16E52;" d="M465.834,1000.421c-47.923,0-86.911-38.988-86.911-86.911c0-47.923,38.988-86.911,86.911-86.911
		s86.911,38.988,86.911,86.911C552.745,961.433,513.757,1000.421,465.834,1000.421z M465.834,851.748
		c-34.056,0-61.762,27.706-61.762,61.762c0,34.056,27.706,61.762,61.762,61.762c34.056,0,61.762-27.706,61.762-61.762
		C527.596,879.454,499.891,851.748,465.834,851.748z"/>
	<path style="fill:#DAAA49;" d="M568.871,755.061c-23.578,0-42.761-19.182-42.761-42.761c0-23.578,19.182-42.761,42.761-42.761
		s42.761,19.182,42.761,42.761C611.632,735.878,592.449,755.061,568.871,755.061z M568.871,694.688
		c-9.712,0-17.612,7.9-17.612,17.612c0,9.712,7.9,17.612,17.612,17.612c9.712,0,17.612-7.901,17.612-17.612
		C586.483,702.588,578.583,694.688,568.871,694.688z"/>
	
		<ellipse transform="matrix(0.9732 -0.2298 0.2298 0.9732 -137.112 70.3571)" style="fill:#89BBE1;" cx="233.58" cy="623.982" rx="23.901" ry="23.901"/>
	
		<ellipse transform="matrix(0.9732 -0.2298 0.2298 0.9732 -185.9378 230.0788)" style="fill:#D16E52;" cx="895.057" cy="913.511" rx="23.901" ry="23.901"/>
	
		<ellipse transform="matrix(0.9732 -0.2298 0.2298 0.9732 -98.5877 361.9437)" style="fill:#D16E52;" cx="1504.998" cy="604.336" rx="23.901" ry="23.901"/>
	
		<ellipse transform="matrix(0.1891 -0.982 0.982 0.1891 919.5455 1404.4895)" style="fill:#8BC3B6;" cx="1310.161" cy="145.48" rx="23.901" ry="23.901"/>
	
		<ellipse transform="matrix(0.8507 -0.5257 0.5257 0.8507 -0.4049 289.5342)" style="fill:#D16E52;" cx="509.399" cy="145.48" rx="23.901" ry="23.901"/>
	
		<ellipse transform="matrix(0.7071 -0.7071 0.7071 0.7071 90.9839 729.4608)" style="fill:#DAAA49;" cx="926.029" cy="254.903" rx="23.901" ry="23.901"/>
	
		<ellipse transform="matrix(0.7071 -0.7071 0.7071 0.7071 -396.0161 560.4765)" style="fill:#8BC3B6;" cx="478.547" cy="758.272" rx="23.901" ry="23.901"/>
	<path style="fill:#8BC3B6;" d="M1077.786,976.31c-23.579,0-42.761-19.182-42.761-42.761c0-23.579,19.182-42.761,42.761-42.761
		c23.578,0,42.761,19.182,42.761,42.761C1120.547,957.128,1101.365,976.31,1077.786,976.31z M1077.786,915.937
		c-9.712,0-17.612,7.9-17.612,17.612c0,9.712,7.9,17.612,17.612,17.612c9.712,0,17.612-7.9,17.612-17.612
		C1095.398,923.837,1087.498,915.937,1077.786,915.937z"/>
	
		<rect x="1217.534" y="650.897" transform="matrix(0.5051 -0.863 0.863 0.5051 -26.7138 1426.0001)" style="fill:#DAAA49;" width="25.149" height="170.794"/>
	
		<rect x="1144.328" y="449.445" transform="matrix(0.9495 -0.3139 0.3139 0.9495 -78.1327 438.7215)" style="fill:#89BBE1;" width="358.305" height="25.148"/>
	
		<rect x="527.978" y="350.159" transform="matrix(0.2874 -0.9578 0.9578 0.2874 -85.5732 868.0099)" style="fill:#8BC3B6;" width="25.149" height="282.71"/>
	
		<rect x="593.855" y="675.49" transform="matrix(0.9775 -0.2111 0.2111 0.9775 -130.9499 149.6576)" style="fill:#DAAA49;" width="83.025" height="25.148"/>
	
		<rect x="516.838" y="810.689" transform="matrix(0.8757 -0.4829 0.4829 0.8757 -319.3958 405.9048)" style="fill:#D16E52;" width="223.578" height="25.15"/>
	
		<rect x="1037.223" y="827.154" transform="matrix(0.9079 -0.4192 0.4192 0.9079 -266.7788 519.8809)" style="fill:#8BC3B6;" width="25.15" height="79.886"/>
	<path style="fill:#89BBE1;" d="M749.331,231.61c23.512-1.773,44.082,15.913,45.855,39.425
		c1.773,23.512-15.913,44.082-39.425,45.855c-23.512,1.773-44.082-15.913-45.855-39.425
		C708.134,253.953,725.82,233.383,749.331,231.61z M753.871,291.813c9.684-0.73,16.968-9.202,16.238-18.887
		c-0.73-9.684-9.202-16.968-18.887-16.238c-9.684,0.73-16.968,9.202-16.238,18.887C735.714,285.259,744.187,292.543,753.871,291.813
		z"/>
	
		<rect x="772.876" y="298.466" transform="matrix(0.8738 -0.4862 0.4862 0.8738 -65.4445 424.6129)" style="fill:#89BBE1;" width="25.15" height="79.887"/>
	<path style="fill:#D16E52;" d="M1168.343,173.728c13.151,19.57,7.929,46.191-11.642,59.342
		c-19.57,13.151-46.191,7.929-59.342-11.642c-13.151-19.57-7.929-46.191,11.642-59.342
		C1128.571,148.936,1155.191,154.158,1168.343,173.728z M1118.233,207.402c5.417,8.061,16.381,10.212,24.441,4.795
		c8.061-5.417,10.212-16.381,4.795-24.441c-5.417-8.061-16.381-10.212-24.442-4.795
		C1114.967,188.377,1112.816,199.341,1118.233,207.402z"/>
	<polygon style="fill:#D16E52;" points="1124.811,230.285 1038.861,377.883 1017.375,364.811 1103.325,217.212 	"/>
	<path style="fill:#D16E52;" d="M1154.424,561.464l28.362-2.008c-11.968-70.575-51.663-131.83-107.442-172.144l-14.881,24.141
		C1108.764,446.987,1143.297,500.197,1154.424,561.464z"/>
	<path style="fill:#8BC3B6;" d="M918.958,365.018c52.902,0,101.844,17.259,141.504,46.436l14.881-24.141
		c-44.016-31.813-98.046-50.587-156.386-50.587c-57.492,0-110.805,18.227-154.471,49.202l18.229,21.774
		C821.409,380.809,868.371,365.018,918.958,365.018z"/>
	<path style="fill:#DAAA49;" d="M782.716,407.701l-18.229-21.774c-28.498,20.215-52.865,45.874-71.623,75.428l24.511,14.18
		C734.485,448.856,756.724,425.765,782.716,407.701z"/>
	<path style="fill:#89BBE1;" d="M1182.785,559.456l-28.362,2.008c2.527,13.914,3.853,28.241,3.853,42.873
		c0,131.961-107.358,239.317-239.319,239.317c-131.96,0-239.318-107.357-239.318-239.317c0-47.393,13.871-91.593,37.735-128.802
		l-24.511-14.18c-26.27,41.391-41.516,90.434-41.516,142.982c0,147.56,120.049,267.61,267.61,267.61
		c147.562,0,267.611-120.049,267.611-267.61C1186.569,589.045,1185.261,574.054,1182.785,559.456z"/>
	<path style="fill:#3F6FA4;" d="M509.396,904.86c0-1.248-0.849-2.309-2.063-2.577l-9.387-2.102l5.158-8.14
		c0.667-1.052,0.517-2.403-0.363-3.281l-12.206-12.229c-0.859-0.859-2.283-1.007-3.283-0.362l-8.116,5.161l-2.098-9.402
		c-0.271-1.217-1.33-2.067-2.576-2.067h-17.258c-1.247,0-2.307,0.85-2.576,2.066l-2.097,9.405l-8.111-5.159
		c-1.018-0.657-2.432-0.501-3.29,0.358l-12.205,12.232c-0.875,0.879-1.024,2.226-0.359,3.28l5.156,8.138l-9.387,2.102
		c-1.216,0.271-2.065,1.331-2.065,2.579l0.004,17.293c0,1.247,0.85,2.308,2.063,2.578l9.387,2.102l-5.156,8.14
		c-0.667,1.051-0.519,2.399,0.36,3.281l12.204,12.224c0.853,0.862,2.267,1.015,3.285,0.367l8.117-5.163l2.098,9.403
		c0.267,1.201,1.35,2.072,2.576,2.072h0.001l17.258-0.004c1.25,0,2.309-0.852,2.576-2.066l2.098-9.405l8.118,5.165
		c1.022,0.649,2.438,0.488,3.283-0.365l12.197-12.226c0.869-0.863,1.024-2.245,0.368-3.284l-5.157-8.138l9.385-2.105
		c1.217-0.271,2.067-1.331,2.067-2.578L509.396,904.86z M465.768,932.796c-0.005,0-0.011,0-0.017,0l-0.246-0.012
		c-9.809-0.175-17.789-8.31-17.789-18.136c0-9.824,7.976-17.961,17.779-18.137c0.109-0.001,0.219-0.006,0.322-0.013l0.063-0.004
		c9.968,0.026,18.07,8.16,18.07,18.155C483.95,924.655,475.832,932.796,465.768,932.796z"/>
	<path style="fill:#3F6FA4;" d="M1583.005,315.427c-33.854,0-61.397,21.633-61.397,48.223c0,26.589,27.543,48.22,61.397,48.22
		c1.773,0,3.599-0.066,5.441-0.197l4.821,11.659c0.373,0.9,1.168,1.531,2.091,1.68c0.163,0.032,0.331,0.047,0.495,0.047
		c0.796,0,1.556-0.339,2.082-0.928l17.577-19.56c18.095-8.866,28.89-24.148,28.89-40.923
		C1644.402,337.06,1616.859,315.427,1583.005,315.427z M1559.995,376.038c-4.046,0-7.339-3.292-7.339-7.34
		c0-4.047,3.292-7.34,7.339-7.34c4.047,0,7.339,3.292,7.339,7.34C1567.335,372.746,1564.042,376.038,1559.995,376.038z
		 M1583.169,376.038c-4.046,0-7.337-3.292-7.337-7.34c0-4.047,3.292-7.34,7.337-7.34c4.047,0,7.339,3.292,7.339,7.34
		C1590.508,372.746,1587.216,376.038,1583.169,376.038z M1605.276,376.038c-4.045,0-7.336-3.292-7.336-7.34
		c0-4.047,3.291-7.34,7.336-7.34c4.046,0,7.339,3.292,7.339,7.34C1612.614,372.746,1609.322,376.038,1605.276,376.038z"/>
	<g>
		<path style="fill:#3F6FA4;" d="M934.337,744.643l87.075-35.114c2.863-1.155,4.303-4.366,3.259-7.272l-1.219-3.394
			c-0.19-0.531-0.085-1.121,0.257-1.57c17.49-22.897,5.539-53.386,5.539-53.386l-17.538-44.833c-0.028-0.087-0.04-0.127-0.068-0.214
			c-0.333-1.539-5.242-22.884-21.159-22.884c-9.201,0-14.278,4.013-16.969,7.566c-0.891,1.177-2.712,0.883-3.054-0.553
			c-1.098-4.603-4.729-10.419-15.87-11.68c-12.367-1.4-17.301,5.543-19.239,10.574c-0.519,1.347-2.432,1.454-3.059,0.154
			c-3.997-8.29-12.521-17.905-23.286-14.317c-7.391,2.464-10.782,7.218-12.331,10.835c-0.607,1.417-2.588,1.43-3.147-0.007
			l-17.902-46.003c0,0-8.615-27.638-26.561-20.818c-17.947,6.82-8.255,30.509-8.255,30.509l41.333,109.187
			c0.571,1.508-1.085,2.887-2.465,2.053l-19.718-11.922c-0.08-0.057-0.124-0.088-0.204-0.145
			c-1.429-1.246-22.29-18.994-35.457-5.133c-13.118,13.809,1.323,28.946,2.445,30.082c0.07,0.059,0.109,0.091,0.179,0.15
			l97.882,71.089c0.183,0.222,0.358,0.433,0.541,0.654l1.64,3.499C928.279,744.515,931.507,745.784,934.337,744.643z"/>
		<path style="fill:#3F6FA4;" d="M1056.211,762.147l-19.624-44.155c-1.411-3.175-5.084-4.663-8.307-3.365l-96.094,38.693
			c-3.421,1.378-4.994,5.338-3.45,8.687l19.971,43.328c1.434,3.111,5.049,4.559,8.234,3.299l95.746-37.866
			C1056.099,769.419,1057.701,765.5,1056.211,762.147z"/>
		<path style="fill:#3F6FA4;" d="M819.853,472.104c1.755,4.565,6.107,7.364,10.72,7.364c1.371,0,2.768-0.252,4.125-0.774
			c5.919-2.277,8.869-8.928,6.59-14.845l-11.999-31.154c-2.277-5.922-8.926-8.872-14.845-6.59c-5.919,2.277-8.869,8.928-6.59,14.845
			L819.853,472.104z"/>
		<path style="fill:#3F6FA4;" d="M767.85,491.268l30.515,13.55c1.514,0.673,3.096,0.993,4.655,0.993c4.4,0,8.6-2.546,10.504-6.831
			c2.574-5.799-0.039-12.585-5.838-15.159l-30.515-13.55c-5.788-2.58-12.58,0.034-15.159,5.838
			C759.437,481.907,762.051,488.693,767.85,491.268z"/>
		<path style="fill:#3F6FA4;" d="M929.336,537.531l-30.518-13.55c-5.793-2.58-12.585,0.034-15.159,5.838
			c-2.574,5.799,0.039,12.585,5.838,15.159l30.518,13.55c1.514,0.673,3.096,0.993,4.655,0.993c4.4,0,8.603-2.546,10.505-6.831
			C937.748,546.891,935.135,540.105,929.336,537.531z"/>
		<path style="fill:#3F6FA4;" d="M812.893,528.294c-2.28-5.917-8.929-8.872-14.848-6.59l-31.16,11.996
			c-5.92,2.277-8.87,8.923-6.593,14.845c1.758,4.56,6.11,7.364,10.723,7.364c1.371,0,2.768-0.252,4.125-0.774l31.16-11.996
			C812.22,540.862,815.17,534.216,812.893,528.294z"/>
		<path style="fill:#3F6FA4;" d="M884.289,500.504c1.758,4.56,6.11,7.364,10.723,7.364c1.371,0,2.768-0.252,4.125-0.774
			l31.16-11.996c5.92-2.277,8.87-8.923,6.593-14.845c-2.28-5.917-8.923-8.861-14.848-6.59l-31.16,11.996
			C884.963,487.936,882.013,494.582,884.289,500.504z"/>
		<path style="fill:#3F6FA4;" d="M825.461,595.139l13.55-30.515c2.574-5.799-0.039-12.585-5.838-15.159
			c-5.794-2.574-12.582,0.034-15.159,5.838l-13.55,30.515c-2.574,5.799,0.039,12.585,5.838,15.159
			c1.514,0.673,3.096,0.993,4.655,0.993C819.357,601.97,823.557,599.424,825.461,595.139z"/>
		<path style="fill:#3F6FA4;" d="M864.013,479.333c1.514,0.673,3.099,0.993,4.655,0.993c4.403,0,8.603-2.546,10.504-6.831
			l13.547-30.52c2.574-5.799-0.042-12.585-5.838-15.159c-5.799-2.58-12.588,0.039-15.159,5.838l-13.547,30.52
			C855.6,469.973,858.216,476.759,864.013,479.333z"/>
	</g>
	<path style="fill:#3F6FA4;" d="M1430.488,769.213h-57.402c-6.636,0-12.015,5.495-12.015,12.271v118.992
		c0,6.777,5.379,12.273,12.015,12.273h57.402c6.638,0,12.014-5.496,12.014-12.273V781.484
		C1442.502,774.708,1437.126,769.213,1430.488,769.213z M1409.254,902.694c0,1.618-1.309,2.927-2.923,2.927h-9.086
		c-1.613,0-2.925-1.309-2.925-2.927v-5.009c0-1.617,1.312-2.924,2.925-2.924h9.086c1.614,0,2.923,1.308,2.923,2.924V902.694z
		 M1425.577,886.399h-47.58c-3.233,0-5.854-2.621-5.854-5.854V788.8c0-3.233,2.621-5.854,5.854-5.854h47.58
		c3.233,0,5.854,2.621,5.854,5.854v91.744C1431.431,883.778,1428.81,886.399,1425.577,886.399z"/>
	<g>
		<g>
			<path style="fill:#3F6FA4;" d="M344.995,408.891c-1.293,0-2.6,0.083-3.904,0.25c0.136-1.248,0.203-2.426,0.203-3.564
				c0-19.812-16.117-35.931-35.93-35.931c-15.612,0-29.492,10.224-34.204,25.025c-1.093-0.096-2.121-0.144-3.116-0.144
				c-21.013,0-38.11,17.095-38.11,38.11c0,21.014,17.096,38.111,38.11,38.111h76.951c17.054,0,30.928-13.875,30.928-30.929
				C375.923,422.765,362.049,408.891,344.995,408.891z"/>
		</g>
	</g>
</g>
</svg>
